<svg width="255" height="40" viewBox="0 0 255 40" fill="none" xmlns="http://www.w3.org/2000/svg">
<rect width="215" height="40" fill="white"/>
<path d="M21.26 23.988V15.612C22.372 15.58 23.14 15.564 23.564 15.564C24.476 15.564 25.152 15.748 25.592 16.116C26.04 16.476 26.264 16.984 26.264 17.64C26.264 18.128 26.136 18.536 25.88 18.864C25.624 19.192 25.272 19.432 24.824 19.584V19.608C25.368 19.696 25.792 19.912 26.096 20.256C26.408 20.6 26.564 21.048 26.564 21.6C26.564 22.4 26.292 23.008 25.748 23.424C25.204 23.832 24.46 24.036 23.516 24.036C22.596 24.036 21.844 24.02 21.26 23.988ZM23.636 20.172H22.28V23.028C22.608 23.06 23.04 23.076 23.576 23.076C24.208 23.076 24.692 22.948 25.028 22.692C25.372 22.428 25.544 22.044 25.544 21.54C25.544 21.1 25.376 20.764 25.04 20.532C24.712 20.292 24.244 20.172 23.636 20.172ZM23.54 16.524C23.3 16.524 22.88 16.536 22.28 16.56V19.272H23.624C24.096 19.272 24.484 19.148 24.788 18.9C25.092 18.644 25.244 18.3 25.244 17.868C25.244 16.972 24.676 16.524 23.54 16.524ZM28.2703 24V18.6C28.3103 18.6 28.3663 18.6 28.4383 18.6C28.5103 18.592 28.6143 18.588 28.7503 18.588C28.8863 18.58 29.0103 18.576 29.1223 18.576C29.7143 18.56 30.0823 18.552 30.2263 18.552C31.7783 18.552 32.5543 19.016 32.5543 19.944C32.5543 20.264 32.4543 20.54 32.2543 20.772C32.0543 20.996 31.7943 21.132 31.4743 21.18V21.204C32.3143 21.356 32.7343 21.78 32.7343 22.476C32.7343 23.524 31.9063 24.048 30.2503 24.048C30.1703 24.048 29.8183 24.04 29.1943 24.024C29.0743 24.024 28.9423 24.02 28.7983 24.012C28.6543 24.012 28.5423 24.008 28.4623 24C28.3823 24 28.3183 24 28.2703 24ZM30.3823 21.576H29.2303V23.232C29.8063 23.256 30.1743 23.268 30.3343 23.268C31.2543 23.268 31.7143 22.98 31.7143 22.404C31.7143 21.852 31.2703 21.576 30.3823 21.576ZM30.2983 19.332C30.0663 19.332 29.7103 19.344 29.2303 19.368V20.976H30.4423C30.7703 20.976 31.0343 20.9 31.2343 20.748C31.4343 20.596 31.5343 20.392 31.5343 20.136C31.5343 19.6 31.1223 19.332 30.2983 19.332ZM38.4599 22.656L38.7599 23.412C38.2399 23.884 37.5639 24.12 36.7319 24.12C35.8519 24.12 35.1519 23.864 34.6319 23.352C34.1039 22.84 33.8399 22.156 33.8399 21.3C33.8399 20.492 34.0879 19.82 34.5839 19.284C35.0719 18.748 35.7519 18.48 36.6239 18.48C37.3439 18.48 37.9399 18.712 38.4119 19.176C38.8919 19.632 39.1319 20.224 39.1319 20.952C39.1319 21.184 39.1119 21.4 39.0719 21.6H34.9199C34.9599 22.104 35.1479 22.5 35.4839 22.788C35.8279 23.076 36.2679 23.22 36.8039 23.22C37.5079 23.22 38.0599 23.032 38.4599 22.656ZM36.5759 19.38C36.1039 19.38 35.7119 19.512 35.3999 19.776C35.0959 20.04 34.9159 20.388 34.8599 20.82H38.1359C38.1119 20.372 37.9599 20.02 37.6799 19.764C37.4079 19.508 37.0399 19.38 36.5759 19.38ZM40.3794 25.32H39.4794V23.1H40.1514C40.3514 22.852 40.5274 22.452 40.6794 21.9C40.8314 21.34 40.9314 20.716 40.9794 20.028L41.0634 18.6H44.7474V23.1H45.6474V25.32H44.7474V24H40.3794V25.32ZM41.9634 19.5L41.9034 20.4C41.8554 21 41.7594 21.548 41.6154 22.044C41.4714 22.54 41.3234 22.892 41.1714 23.1H43.7874V19.5H41.9634ZM50.7721 19.98L47.6521 24H46.6921V18.6H47.6521V22.62L50.7721 18.6H51.7321V24H50.7721V19.98ZM54.7733 19.56H52.7933V18.6H57.7133V19.56H55.7333V24H54.7733V19.56ZM62.8467 22.656L63.1467 23.412C62.6267 23.884 61.9507 24.12 61.1187 24.12C60.2387 24.12 59.5387 23.864 59.0187 23.352C58.4907 22.84 58.2267 22.156 58.2267 21.3C58.2267 20.492 58.4747 19.82 58.9707 19.284C59.4587 18.748 60.1387 18.48 61.0107 18.48C61.7307 18.48 62.3267 18.712 62.7987 19.176C63.2787 19.632 63.5187 20.224 63.5187 20.952C63.5187 21.184 63.4987 21.4 63.4587 21.6H59.3067C59.3467 22.104 59.5347 22.5 59.8707 22.788C60.2147 23.076 60.6547 23.22 61.1907 23.22C61.8947 23.22 62.4467 23.032 62.8467 22.656ZM60.9627 19.38C60.4907 19.38 60.0987 19.512 59.7867 19.776C59.4827 20.04 59.3027 20.388 59.2467 20.82H62.5227C62.4987 20.372 62.3467 20.02 62.0667 19.764C61.7947 19.508 61.4267 19.38 60.9627 19.38ZM67.5163 24V18.6C67.5563 18.6 67.6123 18.6 67.6843 18.6C67.7563 18.592 67.8603 18.588 67.9963 18.588C68.1323 18.58 68.2563 18.576 68.3683 18.576C68.9603 18.56 69.3283 18.552 69.4723 18.552C71.0243 18.552 71.8003 19.016 71.8003 19.944C71.8003 20.264 71.7003 20.54 71.5003 20.772C71.3003 20.996 71.0403 21.132 70.7203 21.18V21.204C71.5603 21.356 71.9803 21.78 71.9803 22.476C71.9803 23.524 71.1523 24.048 69.4963 24.048C69.4163 24.048 69.0643 24.04 68.4403 24.024C68.3203 24.024 68.1883 24.02 68.0443 24.012C67.9003 24.012 67.7883 24.008 67.7083 24C67.6283 24 67.5643 24 67.5163 24ZM69.6283 21.576H68.4763V23.232C69.0523 23.256 69.4203 23.268 69.5803 23.268C70.5003 23.268 70.9603 22.98 70.9603 22.404C70.9603 21.852 70.5163 21.576 69.6283 21.576ZM69.5443 19.332C69.3123 19.332 68.9563 19.344 68.4763 19.368V20.976H69.6883C70.0163 20.976 70.2803 20.9 70.4803 20.748C70.6803 20.596 70.7803 20.392 70.7803 20.136C70.7803 19.6 70.3683 19.332 69.5443 19.332ZM73.734 19.74L73.482 18.972C74.018 18.644 74.618 18.48 75.282 18.48C76.01 18.48 76.538 18.66 76.866 19.02C77.194 19.38 77.358 19.936 77.358 20.688V24H76.446V23.304C76.022 23.824 75.446 24.084 74.718 24.084C74.222 24.084 73.822 23.936 73.518 23.64C73.214 23.336 73.062 22.928 73.062 22.416C73.062 21.888 73.25 21.472 73.626 21.168C74.002 20.856 74.494 20.7 75.102 20.7C75.67 20.7 76.118 20.816 76.446 21.048C76.446 20.44 76.362 20.004 76.194 19.74C76.026 19.476 75.702 19.344 75.222 19.344C74.734 19.344 74.238 19.476 73.734 19.74ZM75.054 23.22C75.59 23.22 76.054 22.988 76.446 22.524V21.84C76.11 21.6 75.706 21.48 75.234 21.48C74.906 21.48 74.63 21.56 74.406 21.72C74.19 21.872 74.082 22.088 74.082 22.368C74.082 22.632 74.166 22.84 74.334 22.992C74.51 23.144 74.75 23.22 75.054 23.22ZM85.8056 24H78.9656V18.6H79.9256V23.1H81.9056V18.6H82.8656V23.1H84.8456V18.6H85.8056V24ZM94.499 22.656L94.799 23.412C94.279 23.884 93.603 24.12 92.771 24.12C91.891 24.12 91.191 23.864 90.671 23.352C90.143 22.84 89.879 22.156 89.879 21.3C89.879 20.492 90.127 19.82 90.623 19.284C91.111 18.748 91.791 18.48 92.663 18.48C93.383 18.48 93.979 18.712 94.451 19.176C94.931 19.632 95.171 20.224 95.171 20.952C95.171 21.184 95.151 21.4 95.111 21.6H90.959C90.999 22.104 91.187 22.5 91.523 22.788C91.867 23.076 92.307 23.22 92.843 23.22C93.547 23.22 94.099 23.032 94.499 22.656ZM92.615 19.38C92.143 19.38 91.751 19.512 91.439 19.776C91.135 20.04 90.955 20.388 90.899 20.82H94.175C94.151 20.372 93.999 20.02 93.719 19.764C93.447 19.508 93.079 19.38 92.615 19.38ZM99.518 21.18H96.65V20.28H99.518V21.18ZM109.294 20.46V24H108.334V20.724C108.334 19.844 107.946 19.404 107.17 19.404C106.858 19.404 106.574 19.476 106.318 19.62C106.07 19.756 105.882 19.944 105.754 20.184C105.762 20.224 105.766 20.352 105.766 20.568V24H104.806V20.52C104.806 20.176 104.702 19.904 104.494 19.704C104.294 19.504 104.014 19.404 103.654 19.404C103.054 19.404 102.582 19.648 102.238 20.136V24H101.278V18.6H102.238V19.284C102.438 19.052 102.698 18.864 103.018 18.72C103.346 18.576 103.682 18.504 104.026 18.504C104.434 18.504 104.782 18.588 105.07 18.756C105.358 18.924 105.554 19.152 105.658 19.44C105.858 19.152 106.126 18.924 106.462 18.756C106.798 18.588 107.162 18.504 107.554 18.504C108.714 18.504 109.294 19.156 109.294 20.46ZM111.199 19.74L110.947 18.972C111.483 18.644 112.083 18.48 112.747 18.48C113.475 18.48 114.003 18.66 114.331 19.02C114.659 19.38 114.823 19.936 114.823 20.688V24H113.911V23.304C113.487 23.824 112.911 24.084 112.183 24.084C111.687 24.084 111.287 23.936 110.983 23.64C110.679 23.336 110.527 22.928 110.527 22.416C110.527 21.888 110.715 21.472 111.091 21.168C111.467 20.856 111.959 20.7 112.567 20.7C113.135 20.7 113.583 20.816 113.911 21.048C113.911 20.44 113.827 20.004 113.659 19.74C113.491 19.476 113.167 19.344 112.687 19.344C112.199 19.344 111.703 19.476 111.199 19.74ZM112.519 23.22C113.055 23.22 113.519 22.988 113.911 22.524V21.84C113.575 21.6 113.171 21.48 112.699 21.48C112.371 21.48 112.095 21.56 111.871 21.72C111.655 21.872 111.547 22.088 111.547 22.368C111.547 22.632 111.631 22.84 111.799 22.992C111.975 23.144 112.215 23.22 112.519 23.22ZM117.654 24H116.694V18.6H117.654V24ZM116.574 16.572C116.574 16.404 116.634 16.268 116.754 16.164C116.874 16.052 117.022 15.996 117.198 15.996C117.366 15.996 117.506 16.052 117.618 16.164C117.73 16.268 117.786 16.404 117.786 16.572C117.786 16.756 117.73 16.908 117.618 17.028C117.506 17.14 117.366 17.196 117.198 17.196C117.022 17.196 116.874 17.14 116.754 17.028C116.634 16.908 116.574 16.756 116.574 16.572ZM119.641 22.56V15.6H120.601V22.128C120.601 22.84 120.813 23.196 121.237 23.196C121.445 23.196 121.673 23.116 121.921 22.956L122.137 23.688C121.793 23.96 121.369 24.096 120.865 24.096C120.049 24.096 119.641 23.584 119.641 22.56Z" fill="#9C9C9C"/>
<rect x="215" width="40" height="40" fill="#F6404F"/>
<g clip-path="url(#clip0_1_278)">
<path d="M226 12.0885V24.5953H229.475L229.473 29.9114L234.801 24.5953H244V12.0885H226Z" fill="white"/>
</g>
<defs>
<clipPath id="clip0_1_278">
<rect width="18" height="18" fill="white" transform="translate(226 12)"/>
</clipPath>
</defs>
</svg>
