<svg width="219" height="25" viewBox="0 0 219 25" fill="none" xmlns="http://www.w3.org/2000/svg">
<path d="M157.749 0.00520167L154.507 0C150.865 0 148.511 2.41487 148.511 6.15253V8.98926H145.252C144.97 8.98926 144.742 9.21762 144.742 9.49929V13.6094C144.742 13.8911 144.97 14.1191 145.252 14.1191H148.511V24.4902C148.511 24.7719 148.739 25 149.021 25H153.274C153.556 25 153.784 24.7716 153.784 24.4902V14.1191H157.595C157.877 14.1191 158.105 13.8911 158.105 13.6094L158.106 9.49929C158.106 9.36404 158.052 9.23452 157.957 9.13881C157.861 9.0431 157.731 8.98926 157.596 8.98926H153.784V6.58453C153.784 5.42872 154.059 4.84197 155.565 4.84197L157.749 4.84119C158.03 4.84119 158.258 4.61284 158.258 4.33143V0.514965C158.258 0.233815 158.03 0.00572184 157.749 0.00520167Z" fill="#E0E0E0"/>
<g clip-path="url(#clip0_1_258)">
<path d="M211.188 0H201.812C197.498 0 194 3.49844 194 7.8125V17.1875C194 21.5016 197.498 25 201.812 25H211.188C215.502 25 219 21.5016 219 17.1875V7.8125C219 3.49844 215.502 0 211.188 0ZM216.656 17.1875C216.656 20.2031 214.203 22.6562 211.188 22.6562H201.812C198.797 22.6562 196.344 20.2031 196.344 17.1875V7.8125C196.344 4.79688 198.797 2.34375 201.812 2.34375H211.188C214.203 2.34375 216.656 4.79688 216.656 7.8125V17.1875Z" fill="#E0E0E0"/>
<path d="M206.5 6.25C203.048 6.25 200.25 9.04844 200.25 12.5C200.25 15.9516 203.048 18.75 206.5 18.75C209.952 18.75 212.75 15.9516 212.75 12.5C212.75 9.04844 209.952 6.25 206.5 6.25ZM206.5 16.4062C204.347 16.4062 202.594 14.6531 202.594 12.5C202.594 10.3453 204.347 8.59375 206.5 8.59375C208.653 8.59375 210.406 10.3453 210.406 12.5C210.406 14.6531 208.653 16.4062 206.5 16.4062Z" fill="#E0E0E0"/>
<path d="M213.219 6.61399C213.679 6.61399 214.052 6.24113 214.052 5.78118C214.052 5.32123 213.679 4.94836 213.219 4.94836C212.759 4.94836 212.386 5.32123 212.386 5.78118C212.386 6.24113 212.759 6.61399 213.219 6.61399Z" fill="#E0E0E0"/>
</g>
<path d="M27.7309 0H7.26905C3.25446 0 0 3.28509 0 7.33747V17.6625C0 21.7149 3.25446 25 7.26905 25H27.7309C31.7455 25 35 21.7149 35 17.6625V7.33747C35 3.28509 31.7455 0 27.7309 0ZM22.8149 13.0024L13.2442 17.61C12.9892 17.7327 12.6946 17.545 12.6946 17.2599V7.75667C12.6946 7.46744 12.997 7.27999 13.2525 7.41073L22.8232 12.3063C23.1078 12.4519 23.1028 12.8638 22.8149 13.0024Z" fill="#E0E0E0"/>
<path d="M108.767 22.5777C108.713 22.4634 108.664 22.3685 108.618 22.2926C107.854 20.9233 106.395 19.2427 104.242 17.2503L104.196 17.2046L104.174 17.1823L104.151 17.1593H104.128C103.15 16.2315 102.531 15.6077 102.272 15.2883C101.798 14.6799 101.692 14.064 101.951 13.44C102.134 12.9686 102.822 11.9729 104.013 10.4517C104.639 9.64557 105.135 8.99944 105.502 8.51264C108.144 5.01431 109.29 2.77882 108.938 1.80531L108.802 1.57782C108.71 1.44086 108.473 1.31556 108.092 1.20129C107.71 1.08727 107.221 1.06841 106.625 1.1444L100.028 1.18979C99.9207 1.15207 99.7681 1.15559 99.5693 1.20129C99.3707 1.247 99.2714 1.26994 99.2714 1.26994L99.1565 1.32707L99.0654 1.39571C98.989 1.4411 98.905 1.52092 98.8133 1.63503C98.722 1.74874 98.6457 1.88218 98.5848 2.03425C97.8665 3.87459 97.0498 5.58564 96.1332 7.16733C95.5681 8.11047 95.0491 8.92784 94.5751 9.61992C94.1018 10.3118 93.7047 10.8215 93.3842 11.1482C93.0632 11.4753 92.7736 11.7373 92.5134 11.9352C92.2537 12.1332 92.0554 12.2169 91.9181 12.1863C91.7805 12.1557 91.6509 12.1253 91.5283 12.095C91.3146 11.958 91.1427 11.7717 91.0131 11.536C90.883 11.3003 90.7954 11.0036 90.7495 10.6462C90.704 10.2885 90.677 9.98086 90.6693 9.7222C90.6622 9.46386 90.6654 9.09844 90.6809 8.62699C90.6968 8.1553 90.704 7.83615 90.704 7.66882C90.704 7.09077 90.7153 6.46342 90.738 5.78661C90.7611 5.10979 90.7798 4.57354 90.7954 4.17848C90.811 3.78302 90.8182 3.36462 90.8182 2.92353C90.8182 2.48245 90.7913 2.13653 90.738 1.88546C90.6853 1.63471 90.6045 1.39131 90.4981 1.15535C90.3909 0.919622 90.2342 0.737274 90.0284 0.607824C89.8223 0.478534 89.566 0.375933 89.261 0.299702C88.4515 0.117274 87.4206 0.0185883 86.168 0.00324613C83.3275 -0.0271186 81.5023 0.155549 80.6928 0.55101C80.3721 0.718095 80.0819 0.94639 79.8224 1.23517C79.5474 1.56991 79.509 1.75257 79.7076 1.78262C80.6241 1.91934 81.2729 2.2464 81.6547 2.76348L81.7923 3.03748C81.8994 3.23517 82.0063 3.58517 82.1132 4.08698C82.22 4.5888 82.2889 5.14391 82.3193 5.75201C82.3955 6.86248 82.3955 7.81306 82.3193 8.60382C82.2428 9.3949 82.1706 10.0107 82.1017 10.4518C82.0327 10.8929 81.9297 11.2503 81.7923 11.524C81.6547 11.7978 81.5632 11.9651 81.5173 12.0258C81.4715 12.0866 81.4333 12.1248 81.4029 12.1399C81.2044 12.2156 80.998 12.2542 80.7843 12.2542C80.5703 12.2542 80.3108 12.1476 80.0054 11.9346C79.7001 11.7216 79.3832 11.4289 79.0548 11.0562C78.7264 10.6835 78.356 10.1626 77.9435 9.49342C77.5313 8.82428 77.1036 8.03344 76.6607 7.1209L76.2943 6.45911C76.0652 6.03336 75.7522 5.41344 75.3551 4.59991C74.9578 3.78605 74.6066 2.99881 74.3013 2.23833C74.1792 1.91894 73.9959 1.67578 73.7515 1.50846L73.6369 1.43982C73.5607 1.37909 73.4383 1.3146 73.2704 1.24588C73.1023 1.17724 72.9269 1.12802 72.7435 1.09773L66.4665 1.14312C65.825 1.14312 65.3898 1.28783 65.1606 1.57686L65.0689 1.71358C65.0231 1.78973 65 1.91135 65 2.07876C65 2.24608 65.0458 2.45144 65.1375 2.6946C66.0539 4.83931 67.0504 6.90771 68.127 8.90011C69.2037 10.8925 70.1393 12.4975 70.9332 13.7135C71.7273 14.9304 72.5368 16.0789 73.3616 17.1584C74.1864 18.2384 74.7323 18.9305 74.9994 19.2345C75.2669 19.5391 75.4769 19.7668 75.6296 19.9189L76.2025 20.4664C76.569 20.8315 77.1072 21.2687 77.8174 21.7781C78.5278 22.2878 79.3142 22.7897 80.1771 23.2844C81.0402 23.7783 82.0442 24.1813 83.1898 24.493C84.3352 24.8051 85.45 24.9303 86.5345 24.8699H89.1691C89.7034 24.8239 90.1082 24.6566 90.3833 24.3678L90.4745 24.2535C90.5358 24.1627 90.5932 24.0217 90.6461 23.8319C90.6997 23.6418 90.7263 23.4324 90.7263 23.2045C90.7107 22.5507 90.7607 21.9613 90.875 21.4367C90.9891 20.9122 91.1193 20.5167 91.2648 20.2504C91.4103 19.9843 91.5745 19.7597 91.7572 19.5777C91.9403 19.3953 92.0708 19.2848 92.1473 19.2467C92.2234 19.2085 92.2841 19.1825 92.3299 19.1669C92.6965 19.0453 93.1278 19.1631 93.6247 19.5208C94.1211 19.8782 94.5867 20.3196 95.0223 20.8441C95.4576 21.3691 95.9806 21.9581 96.5914 22.6119C97.2025 23.2661 97.7369 23.7523 98.195 24.0722L98.653 24.3459C98.9588 24.5286 99.3559 24.6959 99.8448 24.848C100.333 25 100.76 25.038 101.127 24.962L106.992 24.8709C107.572 24.8709 108.023 24.7753 108.343 24.5855C108.664 24.3954 108.855 24.186 108.916 23.9581C108.977 23.7301 108.981 23.4713 108.928 23.1821C108.873 22.8935 108.82 22.6918 108.767 22.5777Z" fill="#E0E0E0"/>
<defs>
<clipPath id="clip0_1_258">
<rect width="25" height="25" fill="white" transform="translate(194)"/>
</clipPath>
</defs>
</svg>
