<svg width="66" height="9" viewBox="0 0 66 9" fill="none" xmlns="http://www.w3.org/2000/svg">
<path d="M0.909157 8.76479H0.0321198V6.40304H0.731377C1.34767 5.87429 1.64397 4.98129 1.63212 3.70054V0.222534H6.3847V6.40304H7.17877V8.76479H6.30174V7.27254H0.909157V8.76479ZM2.55656 3.71229C2.56841 4.82854 2.34323 5.72154 1.88101 6.41479H5.47211V1.09203H2.55656V3.71229Z" fill="white" stroke="white" stroke-width="0.2" stroke-miterlimit="10"/>
<path d="M14.3032 6.35766C13.6039 7.07441 12.7388 7.42691 11.6958 7.42691C10.6528 7.42691 9.78765 7.07441 9.08839 6.35766C8.38913 5.64091 8.04543 4.77141 8.04543 3.74916C8.04543 2.72691 8.38913 1.84566 9.08839 1.14066C9.78765 0.423912 10.6528 0.0714111 11.6958 0.0714111C12.7269 0.0714111 13.5921 0.423912 14.3032 1.14066C15.0025 1.85741 15.358 2.72691 15.358 3.74916C15.358 4.78316 15.0025 5.65266 14.3032 6.35766ZM9.76395 5.77016C10.2854 6.29891 10.9373 6.55741 11.6958 6.55741C12.4543 6.55741 13.1062 6.29891 13.6277 5.77016C14.1491 5.24141 14.4217 4.57166 14.4217 3.74916C14.4217 2.92666 14.161 2.25691 13.6277 1.72816C13.1062 1.19941 12.4662 0.929161 11.6958 0.929161C10.9373 0.929161 10.2854 1.18766 9.76395 1.71641C9.24246 2.25691 8.98172 2.92666 8.98172 3.74916C8.98172 4.57166 9.24246 5.24141 9.76395 5.77016Z" fill="white" stroke="white" stroke-width="0.2" stroke-miterlimit="10"/>
<path d="M19.9565 7.42758C18.9135 7.42758 18.0365 7.07508 17.3253 6.37008C16.6142 5.66508 16.2587 4.79558 16.2587 3.73808C16.2587 2.69233 16.6142 1.81108 17.3253 1.10608C18.0365 0.401084 18.9135 0.048584 19.9565 0.048584C21.0231 0.048584 21.9002 0.436334 22.5639 1.20008L21.9239 1.81108C21.4379 1.21183 20.7861 0.918083 19.9446 0.918083C19.1742 0.918083 18.5105 1.17658 17.9772 1.69358C17.4439 2.21058 17.1831 2.89208 17.1831 3.72633C17.1831 4.56058 17.4439 5.24208 17.9772 5.75908C18.5105 6.27608 19.1624 6.53458 19.9446 6.53458C20.7979 6.53458 21.5209 6.19383 22.1253 5.51233L22.7653 6.14683C22.4453 6.53458 22.0305 6.84008 21.5446 7.06333C21.0587 7.32183 20.5253 7.42758 19.9565 7.42758Z" fill="white" stroke="white" stroke-width="0.2" stroke-miterlimit="10"/>
<path d="M26.4729 7.27253H25.5603V1.09203H23.5692V0.222534H28.4522V1.09203H26.4611V7.27253H26.4729Z" fill="white" stroke="white" stroke-width="0.2" stroke-miterlimit="10"/>
<path d="M34.7343 0.222534L32.0439 6.16803C31.6765 7.00228 31.1194 7.42528 30.3846 7.42528C30.1713 7.42528 29.9343 7.37828 29.6735 7.27253L29.9106 6.43828C30.0646 6.52053 30.2187 6.56753 30.3846 6.56753C30.598 6.56753 30.7639 6.53228 30.8824 6.45003C31.0009 6.36778 31.1076 6.21503 31.2024 6.00353L31.4631 5.43953L29.0691 0.222534H30.1476L31.9017 4.26453H31.9372L33.6557 0.222534H34.7343Z" fill="white" stroke="white" stroke-width="0.2" stroke-miterlimit="10"/>
<path d="M35.7641 7.27253V0.222534H40.9078V7.27253H39.9952V1.09203H36.6767V7.27253H35.7641Z" fill="white" stroke="white" stroke-width="0.2" stroke-miterlimit="10"/>
<path d="M42.5322 7.27253V0.222534H43.4448V3.24228H47.0003V0.222534H47.9129V7.27253H47.0003V4.08828H43.4448V7.27253H42.5322Z" fill="white" stroke="white" stroke-width="0.2" stroke-miterlimit="10"/>
<path d="M55.3688 6.35766C54.6695 7.07441 53.8043 7.42691 52.7614 7.42691C51.7184 7.42691 50.8532 7.07441 50.154 6.35766C49.4547 5.64091 49.111 4.77141 49.111 3.74916C49.111 2.72691 49.4547 1.84566 50.154 1.14066C50.8532 0.423912 51.7184 0.0714111 52.7614 0.0714111C53.7925 0.0714111 54.6577 0.423912 55.3688 1.14066C56.068 1.85741 56.4236 2.72691 56.4236 3.74916C56.4117 4.78316 56.068 5.65266 55.3688 6.35766ZM50.8295 5.77016C51.351 6.29891 52.0028 6.55741 52.7614 6.55741C53.5199 6.55741 54.1717 6.29891 54.6932 5.77016C55.2147 5.24141 55.4873 4.57166 55.4873 3.74916C55.4873 2.92666 55.2265 2.25691 54.6932 1.72816C54.1599 1.19941 53.5199 0.929161 52.7614 0.929161C52.0028 0.929161 51.351 1.18766 50.8295 1.71641C50.2962 2.25691 50.0354 2.92666 50.0354 3.74916C50.0354 4.57166 50.2962 5.24141 50.8295 5.77016Z" fill="white" stroke="white" stroke-width="0.2" stroke-miterlimit="10"/>
<path d="M60.1437 7.27253V0.222534H62.7156C63.2726 0.222534 63.7585 0.410534 64.1615 0.763034C64.5763 1.13903 64.7778 1.59728 64.7778 2.13778C64.7778 2.47853 64.6948 2.77228 64.517 3.01903C64.3393 3.27753 64.1141 3.46553 63.8178 3.59478V3.63003C64.1733 3.74753 64.4578 3.94728 64.683 4.24103C64.9082 4.53478 65.0267 4.86378 65.0267 5.23978C65.0267 5.81553 64.8133 6.29728 64.3867 6.67328C63.9482 7.08453 63.4385 7.27253 62.8578 7.27253H60.1437ZM61.0563 3.24228H62.7156C63.0593 3.24228 63.3319 3.12478 63.5452 2.90153C63.7585 2.67828 63.8533 2.43153 63.8533 2.16128C63.8533 1.89103 63.7585 1.64428 63.5452 1.42103C63.3437 1.19778 63.083 1.08028 62.7511 1.08028H61.0563V3.24228ZM61.0563 6.40303H62.8933C63.2489 6.40303 63.5333 6.28553 63.7467 6.03878C63.96 5.79203 64.0785 5.53353 64.0785 5.23978C64.0785 4.94603 63.9719 4.68753 63.7348 4.45253C63.5096 4.21753 63.2133 4.08828 62.8459 4.08828H61.0444V6.40303H61.0563Z" fill="white" stroke="white" stroke-width="0.2" stroke-miterlimit="10"/>
</svg>
